<svg version="1.2" xmlns="http://www.w3.org/2000/svg" xmlns:xlink="http://www.w3.org/1999/xlink" overflow="visible"
     preserveAspectRatio="none" viewBox="0 0 1010 1010" width="16" height="16">
    <g transform="translate(1, 1)">
        <path d="M268 686c-46.4 0-86.6 30.3-101.7 72H0v72h166.3c15 41.7 55.3 72 101.7 72s86.6-30.3 101.7-72H1008v-72H369.7c-15.1-41.7-55.3-72-101.7-72zm0 153c-24 0-45-21-45-45s21-45 45-45 45 21 45 45-21 45-45 45zM740 396c-46.4 0-86.6 30.3-101.7 72H0v72h638.3c15 41.7 55.3 72 101.7 72s86.6-30.3 101.7-72H1008v-72H841.7c-15.1-41.7-55.3-72-101.7-72zm0 153c-24 0-45-21-45-45s21-45 45-45 45 21 45 45-21 45-45 45zM605.7 178c-15-41.7-55.3-72-101.7-72s-86.6 30.3-101.7 72H0v72h402.3c15 41.7 55.3 72 101.7 72s86.6-30.3 101.7-72H1008v-72H605.7zM504 259c-24 0-45-21-45-45s21-45 45-45 45 21 45 45-21 45-45 45z"
              vector-effect="non-scaling-stroke" />
    </g>
</svg>